<svg xmlns="http://www.w3.org/2000/svg" viewBox="0 0 1366 1073.677">
  <defs>
    <style>
      .cls-1 {
        fill: #040439;
      }
    </style>
  </defs>
  <g id="Group_481" data-name="Group 481" transform="translate(-1377.804 -3559.737)">
    <rect id="Rectangle_86" data-name="Rectangle 86" class="cls-1" width="1366" height="997.669" transform="translate(2743.804 4633.415) rotate(180)"/>
    <g id="Group_2" data-name="Group 2" transform="translate(2743.8 3709.345) rotate(180)">
      <path id="Path_10" data-name="Path 10" class="cls-1" d="M1.621,1.621,105.789-1.73l-3.351,104.168L-1.73,105.789Z" transform="translate(76.027 0) rotate(45)"/>
      <path id="Path_11" data-name="Path 11" class="cls-1" d="M1.621,1.621,105.789-1.73l-3.351,104.168L-1.73,105.789Z" transform="translate(379.384 0) rotate(45)"/>
      <path id="Path_12" data-name="Path 12" class="cls-1" d="M1.621,1.621,105.789-1.73l-3.351,104.168L-1.73,105.789Z" transform="translate(531.063 0) rotate(45)"/>
      <path id="Path_13" data-name="Path 13" class="cls-1" d="M1.621,1.621,105.789-1.73l-3.351,104.168L-1.73,105.789Z" transform="translate(682.741 0) rotate(45)"/>
      <path id="Path_14" data-name="Path 14" class="cls-1" d="M1.621,1.621,105.789-1.73l-3.351,104.168L-1.73,105.789Z" transform="translate(834.419 0) rotate(45)"/>
      <path id="Path_15" data-name="Path 15" class="cls-1" d="M1.621,1.621,105.789-1.73l-3.351,104.168L-1.73,105.789Z" transform="translate(986.098 0) rotate(45)"/>
      <path id="Path_16" data-name="Path 16" class="cls-1" d="M1.621,1.621,105.789-1.73l-3.351,104.168L-1.73,105.789Z" transform="translate(1137.776 0) rotate(45)"/>
      <path id="Path_17" data-name="Path 17" class="cls-1" d="M1.621,1.621,105.789-1.73l-3.351,104.168L-1.73,105.789Z" transform="translate(1289.455 0) rotate(45)"/>
      <path id="Path_18" data-name="Path 18" class="cls-1" d="M1.621,1.621,105.789-1.73l-3.351,104.168L-1.73,105.789Z" transform="translate(227.706 0) rotate(45)"/>
    </g>
  </g>
</svg>
