<svg xmlns="http://www.w3.org/2000/svg" xmlns:xlink="http://www.w3.org/1999/xlink" viewBox="0 0 317.647 317.808"><defs><style>.a{fill:#31ff6f;}.b{filter:url(#a);}</style><filter id="a" x="0" y="0" width="317.647" height="317.808" filterUnits="userSpaceOnUse"><feOffset input="SourceAlpha"/><feGaussianBlur stdDeviation="20" result="b"/><feFlood flood-color="#31ff6f" flood-opacity="0.6"/><feComposite operator="in" in2="b"/><feComposite in="SourceGraphic"/></filter></defs><g class="b" transform="matrix(1, 0, 0, 1, 0, 0)"><path class="a" d="M150.131,69.684A74.749,74.749,0,0,0,75.343,0,74.746,74.746,0,0,0,.557,69.685c-.01.15-.014.3-.014.449v72.987a6.8,6.8,0,0,0,6.8,6.8h27.2a6.8,6.8,0,0,0,6.507-4.827,6.8,6.8,0,0,0,4.826-6.507V93.253a6.8,6.8,0,0,0-4.826-6.507,6.8,6.8,0,0,0-6.507-4.827h-20.4V70.364C16.361,38.515,43.2,13.6,75.343,13.6s58.982,24.914,61.2,56.763V81.919h-20.4a6.8,6.8,0,0,0-6.507,4.827,6.8,6.8,0,0,0-4.826,6.507v45.334a6.8,6.8,0,0,0,4.826,6.507,6.8,6.8,0,0,0,6.507,4.826h27.2a6.8,6.8,0,0,0,6.8-6.8V70.132Q150.146,69.908,150.131,69.684Z" transform="matrix(0.91, 0.41, -0.41, 0.91, 120.48, 59.78)"/></g></svg>