<svg xmlns="http://www.w3.org/2000/svg" xmlns:xlink="http://www.w3.org/1999/xlink" viewBox="0 0 259.976 275.487"><defs><style>.a{fill:#07ddff;}.b{filter:url(#e);}.c{filter:url(#c);}.d{filter:url(#a);}</style><filter id="a" x="2.085" y="0" width="203.555" height="187.718" filterUnits="userSpaceOnUse"><feOffset input="SourceAlpha"/><feGaussianBlur stdDeviation="20" result="b"/><feFlood flood-color="#07ddff" flood-opacity="0.6"/><feComposite operator="in" in2="b"/><feComposite in="SourceGraphic"/></filter><filter id="c" x="23.268" y="47.578" width="203.555" height="187.718" filterUnits="userSpaceOnUse"><feOffset input="SourceAlpha"/><feGaussianBlur stdDeviation="20" result="d"/><feFlood flood-color="#07ddff" flood-opacity="0.6"/><feComposite operator="in" in2="d"/><feComposite in="SourceGraphic"/></filter><filter id="e" x="0" y="29.589" width="259.976" height="245.898" filterUnits="userSpaceOnUse"><feOffset input="SourceAlpha"/><feGaussianBlur stdDeviation="20" result="f"/><feFlood flood-color="#07ddff" flood-opacity="0.6"/><feComposite operator="in" in2="f"/><feComposite in="SourceGraphic"/></filter></defs><g transform="translate(-909.115 -166.776)"><g class="d" transform="matrix(1, 0, 0, 1, 909.12, 166.78)"><path class="a" d="M52.08.073V19.1a5.208,5.208,0,1,1-10.416,0V0H31.248V19.1a5.208,5.208,0,0,1-10.416,0V.073A22.593,22.593,0,0,0,0,22.568v19.1H72.912v-19.1A22.593,22.593,0,0,0,52.08.073Z" transform="matrix(0.91, -0.41, 0.41, 0.91, 62.08, 89.66)"/></g><g class="c" transform="matrix(1, 0, 0, 1, 909.12, 166.78)"><path class="a" d="M67.7,0H0V5.208a36.456,36.456,0,1,0,72.912,0V0Z" transform="matrix(0.91, -0.41, 0.41, 0.91, 83.27, 137.23)"/></g><g class="b" transform="matrix(1, 0, 0, 1, 909.12, 166.78)"><path class="a" d="M109.368,0a5.208,5.208,0,0,0-5.208,5.208V15.624a46.872,46.872,0,1,1-93.744,0V5.208A5.208,5.208,0,1,0,0,5.208V15.624A57.363,57.363,0,0,0,52.08,72.673v8.919a5.208,5.208,0,0,0,10.416,0V72.673a57.364,57.364,0,0,0,52.08-57.049V5.208A5.208,5.208,0,0,0,109.368,0Z" transform="matrix(0.91, -0.41, 0.41, 0.91, 60, 136.19)"/></g></g></svg>