<svg xmlns="http://www.w3.org/2000/svg" viewBox="0 0 70.012 70.003">
  <defs>
    <style>
      .cls-1 {
        fill: #ffa640;
      }
    </style>
  </defs>
  <path id="Path_27" data-name="Path 27" class="cls-1" d="M38.94,2.34l9.52,17.41a4.49,4.49,0,0,0,1.79,1.79l17.41,9.52a4.49,4.49,0,0,1,0,7.89L50.25,48.47a4.49,4.49,0,0,0-1.79,1.79l-9.52,17.4a4.49,4.49,0,0,1-7.89,0L21.53,50.25a4.49,4.49,0,0,0-1.79-1.79L2.34,38.94a4.49,4.49,0,0,1,0-7.89l17.41-9.52a4.49,4.49,0,0,0,1.79-1.79l9.52-17.4a4.49,4.49,0,0,1,7.88,0Z" transform="translate(0.006 -0.003)"/>
</svg>
