<svg xmlns="http://www.w3.org/2000/svg" xmlns:xlink="http://www.w3.org/1999/xlink" viewBox="0 0 468.009 533.752"><defs><style>.a{fill:#ff3b7e;}.b{filter:url(#a);}</style><filter id="a" x="0" y="0" width="468.009" height="533.752" filterUnits="userSpaceOnUse"><feOffset input="SourceAlpha"/><feGaussianBlur stdDeviation="20" result="b"/><feFlood flood-color="#ff3b7e" flood-opacity="0.6"/><feComposite operator="in" in2="b"/><feComposite in="SourceGraphic"/></filter></defs><g class="b" transform="matrix(1, 0, 0, 1, 0, 0)"><path class="a" d="M246.138,51.91C227.812,51.91,212.9,36.386,212.9,17.3c0-9.555-7.441-17.3-16.618-17.3s-16.618,7.748-16.618,17.3V222.585a64.267,64.267,0,0,0-33.458-9.41c-36.776,0-66.7,31.154-66.7,69.448s29.92,69.445,66.7,69.445S212.9,320.916,212.9,282.623V77.206a64.047,64.047,0,0,0,33.235,9.311c18.326,0,33.236,15.525,33.236,34.607,0,9.556,7.44,17.3,16.618,17.3s16.618-7.748,16.618-17.3C312.609,82.96,282.79,51.91,246.138,51.91Z" transform="translate(-13.72 177.11) rotate(-22)"/></g></svg>