<svg xmlns="http://www.w3.org/2000/svg" viewBox="0 0 69.963 67.242">
  <defs>
    <style>
      .cls-1 {
        fill: #516fff;
      }
    </style>
  </defs>
  <path id="Path_25" data-name="Path 25" class="cls-1" d="M40.55,3.45l6,12.21A6.18,6.18,0,0,0,51.23,19L64.7,21a6.18,6.18,0,0,1,3.43,10.55L58.38,41a6.18,6.18,0,0,0-1.78,5.47l2.3,13.42a6.18,6.18,0,0,1-9,6.52L37.88,60.12a6.18,6.18,0,0,0-5.76,0L20.07,66.46a6.18,6.18,0,0,1-9-6.52l2.3-13.42A6.18,6.18,0,0,0,11.62,41L1.87,31.5A6.18,6.18,0,0,1,5.3,21l13.47-2a6.18,6.18,0,0,0,4.66-3.38l6-12.21a6.18,6.18,0,0,1,11.12.04Z" transform="translate(-0.041 0.052)"/>
</svg>
